<svg xmlns="http://www.w3.org/2000/svg" xmlns:xlink="http://www.w3.org/1999/xlink" contentStyleType="text/css" data-diagram-type="CLASS" height="825px" preserveAspectRatio="none" style="width:2137px;height:825px;background:#FFFFFF;" version="1.1" viewBox="0 0 2137 825" width="2137px" zoomAndPan="magnify"><?plantuml 1.2026.3beta6?><defs/><g><g class="title" data-source-line="3"><text fill="#000000" font-family="sans-serif" font-size="14" font-weight="700" lengthAdjust="spacing" textLength="105.2461" x="1012.377" y="22.9951">OOP SERVICE</text></g><!--cluster Service--><g class="cluster" data-qualified-name="Service" data-source-line="5" id="ent0002"><path d="M8.5,43.2969 L67.7012,43.2969 A3.75,3.75 0 0 1 70.2012,45.7969 L77.2012,65.5938 L2119.5,65.5938 A2.5,2.5 0 0 1 2122,68.0938 L2122,808.2869 A2.5,2.5 0 0 1 2119.5,810.7869 L8.5,810.7869 A2.5,2.5 0 0 1 6,808.2869 L6,45.7969 A2.5,2.5 0 0 1 8.5,43.2969" fill="none" style="stroke:#000000;stroke-width:1.5;"/><line style="stroke:#000000;stroke-width:1.5;" x1="6" x2="77.2012" y1="65.5938" y2="65.5938"/><text fill="#000000" font-family="sans-serif" font-size="14" font-weight="700" lengthAdjust="spacing" textLength="58.2012" x="10" y="58.292">Service</text></g><!--cluster Event--><g class="cluster" data-qualified-name="Service.Event" data-source-line="80" id="ent0019"><path d="M32.5,86.2969 L78.3438,86.2969 A3.75,3.75 0 0 1 80.8438,88.7969 L87.8438,108.5938 L1501.5,108.5938 A2.5,2.5 0 0 1 1504,111.0938 L1504,453.6169 A2.5,2.5 0 0 1 1501.5,456.1169 L32.5,456.1169 A2.5,2.5 0 0 1 30,453.6169 L30,88.7969 A2.5,2.5 0 0 1 32.5,86.2969" fill="none" style="stroke:#000000;stroke-width:1.5;"/><line style="stroke:#000000;stroke-width:1.5;" x1="30" x2="87.8438" y1="108.5938" y2="108.5938"/><text fill="#000000" font-family="sans-serif" font-size="14" font-weight="700" lengthAdjust="spacing" textLength="44.8438" x="34" y="101.292">Event</text></g><!--class SystemManager--><g class="entity" data-qualified-name="Service.SystemManager" data-source-line="6" id="ent0003"><rect fill="#F1F1F1" height="129.4844" rx="2.5" ry="2.5" style="stroke:#181818;stroke-width:0.5;" width="328.6816" x="1523.66" y="121.2969"/><ellipse cx="1626.9647" cy="137.2969" fill="#ADD1B2" rx="11" ry="11" style="stroke:#181818;stroke-width:1;"/><path d="M1629.9334,142.9375 Q1629.3553,143.2344 1628.7147,143.375 Q1628.0741,143.5313 1627.3709,143.5313 Q1624.8709,143.5313 1623.5428,141.8906 Q1622.2303,140.2344 1622.2303,137.1094 Q1622.2303,133.9844 1623.5428,132.3281 Q1624.8709,130.6719 1627.3709,130.6719 Q1628.0741,130.6719 1628.7147,130.8281 Q1629.3709,130.9844 1629.9334,131.2813 L1629.9334,134 Q1629.3084,133.4219 1628.7147,133.1563 Q1628.1209,132.875 1627.4959,132.875 Q1626.1522,132.875 1625.4647,133.9531 Q1624.7772,135.0156 1624.7772,137.1094 Q1624.7772,139.2031 1625.4647,140.2813 Q1626.1522,141.3438 1627.4959,141.3438 Q1628.1209,141.3438 1628.7147,141.0781 Q1629.3084,140.7969 1629.9334,140.2188 L1629.9334,142.9375 Z " fill="#000000"/><text fill="#000000" font-family="sans-serif" font-size="14" lengthAdjust="spacing" textLength="113.5723" x="1647.4647" y="142.1436">SystemManager</text><line style="stroke:#181818;stroke-width:0.5;" x1="1524.66" x2="1851.3416" y1="153.2969" y2="153.2969"/><g data-visibility-modifier="PRIVATE_FIELD"><rect fill="none" height="6" style="stroke:#C82930;stroke-width:1;" width="6" x="1531.66" y="163.9453"/></g><text fill="#000000" font-family="sans-serif" font-size="14" lengthAdjust="spacing" textLength="158.4229" x="1543.66" y="170.292">event_bus_ : EventBus</text><g data-visibility-modifier="PRIVATE_FIELD"><rect fill="none" height="6" style="stroke:#C82930;stroke-width:1;" width="6" x="1531.66" y="180.2422"/></g><text fill="#000000" font-family="sans-serif" font-size="14" lengthAdjust="spacing" textLength="209.7266" x="1543.66" y="186.5889">systems_ : vector&lt;ISystem*&gt;</text><line style="stroke:#181818;stroke-width:0.5;" x1="1524.66" x2="1851.3416" y1="193.8906" y2="193.8906"/><g data-visibility-modifier="PUBLIC_METHOD"><ellipse cx="1534.66" cy="207.5391" fill="#84BE84" rx="3" ry="3" style="stroke:#038048;stroke-width:1;"/></g><text fill="#000000" font-family="sans-serif" font-size="14" lengthAdjust="spacing" textLength="203.2529" x="1543.66" y="210.8857">get_event_bus() : EventBus&amp;</text><g data-visibility-modifier="PUBLIC_METHOD"><ellipse cx="1534.66" cy="223.8359" fill="#84BE84" rx="3" ry="3" style="stroke:#038048;stroke-width:1;"/></g><text fill="#000000" font-family="sans-serif" font-size="14" lengthAdjust="spacing" textLength="302.6816" x="1543.66" y="227.1826">get_systems() : const vectror&lt;ISystem*&gt;&amp;</text><g data-visibility-modifier="PUBLIC_METHOD"><ellipse cx="1534.66" cy="240.1328" fill="#84BE84" rx="3" ry="3" style="stroke:#038048;stroke-width:1;"/></g><text fill="#000000" font-family="sans-serif" font-size="14" lengthAdjust="spacing" textLength="264.9199" x="1543.66" y="243.4795">set_systems(sys : vector&lt;ISystem*&gt;)</text></g><!--class GameSystem--><g class="entity" data-qualified-name="Service.GameSystem" data-source-line="14" id="ent0004"><rect fill="#F1F1F1" height="178.375" rx="2.5" ry="2.5" style="stroke:#181818;stroke-width:0.5;" width="218.3428" x="1887.83" y="96.8469"/><ellipse cx="1945.809" cy="112.8469" fill="#ADD1B2" rx="11" ry="11" style="stroke:#181818;stroke-width:1;"/><path d="M1948.7778,118.4875 Q1948.1996,118.7844 1947.559,118.925 Q1946.9184,119.0812 1946.2153,119.0812 Q1943.7153,119.0812 1942.3871,117.4406 Q1941.0746,115.7844 1941.0746,112.6594 Q1941.0746,109.5344 1942.3871,107.8781 Q1943.7153,106.2219 1946.2153,106.2219 Q1946.9184,106.2219 1947.559,106.3781 Q1948.2153,106.5344 1948.7778,106.8312 L1948.7778,109.55 Q1948.1528,108.9719 1947.559,108.7062 Q1946.9653,108.425 1946.3403,108.425 Q1944.9965,108.425 1944.309,109.5031 Q1943.6215,110.5656 1943.6215,112.6594 Q1943.6215,114.7531 1944.309,115.8312 Q1944.9965,116.8937 1946.3403,116.8937 Q1946.9653,116.8937 1947.559,116.6281 Q1948.1528,116.3469 1948.7778,115.7687 L1948.7778,118.4875 Z " fill="#000000"/><text fill="#000000" font-family="sans-serif" font-size="14" lengthAdjust="spacing" textLength="93.8848" x="1966.309" y="117.6936">GameSystem</text><line style="stroke:#181818;stroke-width:0.5;" x1="1888.83" x2="2105.1728" y1="128.8469" y2="128.8469"/><g data-visibility-modifier="PRIVATE_FIELD"><rect fill="none" height="6" style="stroke:#C82930;stroke-width:1;" width="6" x="1895.83" y="139.4953"/></g><text fill="#000000" font-family="sans-serif" font-size="14" lengthAdjust="spacing" textLength="104.5352" x="1907.83" y="145.842">game_ : Level*</text><g data-visibility-modifier="PRIVATE_FIELD"><rect fill="none" height="6" style="stroke:#C82930;stroke-width:1;" width="6" x="1895.83" y="155.7922"/></g><text fill="#000000" font-family="sans-serif" font-size="14" lengthAdjust="spacing" textLength="130.5254" x="1907.83" y="162.1389">player_turn_ : bool</text><g data-visibility-modifier="PRIVATE_FIELD"><rect fill="none" height="6" style="stroke:#C82930;stroke-width:1;" width="6" x="1895.83" y="172.0891"/></g><text fill="#000000" font-family="sans-serif" font-size="14" lengthAdjust="spacing" textLength="192.3428" x="1907.83" y="178.4357">sys_mgr_ : SystemManager</text><g data-visibility-modifier="PRIVATE_FIELD"><rect fill="none" height="6" style="stroke:#C82930;stroke-width:1;" width="6" x="1895.83" y="188.3859"/></g><text fill="#000000" font-family="sans-serif" font-size="14" lengthAdjust="spacing" textLength="158.4229" x="1907.83" y="194.7326">event_bus_ : EventBus</text><line style="stroke:#181818;stroke-width:0.5;" x1="1888.83" x2="2105.1728" y1="202.0344" y2="202.0344"/><g data-visibility-modifier="PUBLIC_METHOD"><ellipse cx="1898.83" cy="215.6828" fill="#84BE84" rx="3" ry="3" style="stroke:#038048;stroke-width:1;"/></g><text fill="#000000" font-family="sans-serif" font-size="14" lengthAdjust="spacing" textLength="132.0225" x="1907.83" y="219.0295">get_level() : Level*</text><g data-visibility-modifier="PUBLIC_METHOD"><ellipse cx="1898.83" cy="231.9797" fill="#84BE84" rx="3" ry="3" style="stroke:#038048;stroke-width:1;"/></g><text fill="#000000" font-family="sans-serif" font-size="14" lengthAdjust="spacing" textLength="146.4941" x="1907.83" y="235.3264">set_level(lvl : Level*)</text><g data-visibility-modifier="PUBLIC_METHOD"><ellipse cx="1898.83" cy="248.2766" fill="#84BE84" rx="3" ry="3" style="stroke:#038048;stroke-width:1;"/></g><text fill="#000000" font-family="sans-serif" font-size="14" lengthAdjust="spacing" textLength="43.5313" x="1907.83" y="251.6232">start()</text><g data-visibility-modifier="PUBLIC_METHOD"><ellipse cx="1898.83" cy="264.5734" fill="#84BE84" rx="3" ry="3" style="stroke:#038048;stroke-width:1;"/></g><text fill="#000000" font-family="sans-serif" font-size="14" lengthAdjust="spacing" textLength="53.1699" x="1907.83" y="267.9201">pause()</text></g><!--class ISystem--><g class="entity" data-qualified-name="Service.ISystem" data-source-line="14" id="ent0005"><rect fill="#F1F1F1" height="80.5938" rx="2.5" ry="2.5" style="stroke:#181818;stroke-width:0.5;" width="229.2529" x="1698.37" y="343.3769"/><ellipse cx="1780.579" cy="359.3769" fill="#B4A7E5" rx="11" ry="11" style="stroke:#181818;stroke-width:1;"/><path d="M1776.5009,355.1425 L1776.5009,352.9863 L1783.8915,352.9863 L1783.8915,355.1425 L1781.4227,355.1425 L1781.4227,363.2206 L1783.8915,363.2206 L1783.8915,365.3769 L1776.5009,365.3769 L1776.5009,363.2206 L1778.9696,363.2206 L1778.9696,355.1425 L1776.5009,355.1425 Z " fill="#000000"/><text fill="#000000" font-family="sans-serif" font-size="14" font-style="italic" lengthAdjust="spacing" textLength="56.335" x="1801.079" y="364.2236">ISystem</text><line style="stroke:#181818;stroke-width:0.5;" x1="1699.37" x2="1926.6229" y1="375.3769" y2="375.3769"/><line style="stroke:#181818;stroke-width:0.5;" x1="1699.37" x2="1926.6229" y1="383.3769" y2="383.3769"/><g data-visibility-modifier="PUBLIC_METHOD"><ellipse cx="1709.37" cy="397.0253" fill="#84BE84" rx="3" ry="3" style="stroke:#038048;stroke-width:1;"/></g><text fill="#000000" font-family="sans-serif" font-size="14" lengthAdjust="spacing" textLength="134.1348" x="1718.37" y="400.372">update(lvl : Level*)</text><g data-visibility-modifier="PUBLIC_METHOD"><ellipse cx="1709.37" cy="413.3222" fill="#84BE84" rx="3" ry="3" style="stroke:#038048;stroke-width:1;"/></g><text fill="#000000" font-family="sans-serif" font-size="14" lengthAdjust="spacing" textLength="203.2529" x="1718.37" y="416.6689">get_event_bus() : EventBus&amp;</text></g><!--class DefaultSystem--><g class="entity" data-qualified-name="Service.DefaultSystem" data-source-line="32" id="ent0007"><rect fill="#F1F1F1" height="96.8906" rx="2.5" ry="2.5" style="stroke:#181818;stroke-width:0.5;" width="229.2529" x="1409.37" y="492.1169"/><ellipse cx="1468.0668" cy="508.1169" fill="#ADD1B2" rx="11" ry="11" style="stroke:#181818;stroke-width:1;"/><path d="M1471.0355,513.7575 Q1470.4574,514.0544 1469.8168,514.195 Q1469.1762,514.3512 1468.473,514.3512 Q1465.973,514.3512 1464.6449,512.7106 Q1463.3324,511.0544 1463.3324,507.9294 Q1463.3324,504.8044 1464.6449,503.1481 Q1465.973,501.4919 1468.473,501.4919 Q1469.1762,501.4919 1469.8168,501.6481 Q1470.473,501.8044 1471.0355,502.1012 L1471.0355,504.82 Q1470.4105,504.2419 1469.8168,503.9762 Q1469.223,503.695 1468.598,503.695 Q1467.2543,503.695 1466.5668,504.7731 Q1465.8793,505.8356 1465.8793,507.9294 Q1465.8793,510.0231 1466.5668,511.1012 Q1467.2543,512.1637 1468.598,512.1637 Q1469.223,512.1637 1469.8168,511.8981 Q1470.4105,511.6169 1471.0355,511.0387 L1471.0355,513.7575 Z " fill="#000000"/><text fill="#000000" font-family="sans-serif" font-size="14" lengthAdjust="spacing" textLength="103.3594" x="1488.5668" y="512.9636">DefaultSystem</text><line style="stroke:#181818;stroke-width:0.5;" x1="1410.37" x2="1637.6229" y1="524.1169" y2="524.1169"/><g data-visibility-modifier="PRIVATE_FIELD"><rect fill="none" height="6" style="stroke:#C82930;stroke-width:1;" width="6" x="1417.37" y="534.7653"/></g><text fill="#000000" font-family="sans-serif" font-size="14" lengthAdjust="spacing" textLength="158.4229" x="1429.37" y="541.112">event_bus_ : EventBus</text><line style="stroke:#181818;stroke-width:0.5;" x1="1410.37" x2="1637.6229" y1="548.4137" y2="548.4137"/><g data-visibility-modifier="PUBLIC_METHOD"><ellipse cx="1420.37" cy="562.0622" fill="#84BE84" rx="3" ry="3" style="stroke:#038048;stroke-width:1;"/></g><text fill="#000000" font-family="sans-serif" font-size="14" lengthAdjust="spacing" textLength="203.2529" x="1429.37" y="565.4089">get_event_bus() : EventBus&amp;</text><g data-visibility-modifier="PUBLIC_METHOD"><ellipse cx="1420.37" cy="578.3591" fill="#84BE84" rx="3" ry="3" style="stroke:#038048;stroke-width:1;"/></g><text fill="#000000" font-family="sans-serif" font-size="14" lengthAdjust="spacing" textLength="134.1348" x="1429.37" y="581.7057">update(lvl : Level*)</text></g><!--class CombatSystem--><g class="entity" data-qualified-name="Service.CombatSystem" data-source-line="40" id="ent0009"><rect fill="#F1F1F1" height="80.5938" rx="2.5" ry="2.5" style="stroke:#181818;stroke-width:0.5;" width="357.3926" x="360.3" y="681.5969"/><ellipse cx="481.1765" cy="697.5969" fill="#ADD1B2" rx="11" ry="11" style="stroke:#181818;stroke-width:1;"/><path d="M484.1452,703.2375 Q483.5671,703.5344 482.9265,703.675 Q482.2858,703.8313 481.5827,703.8313 Q479.0827,703.8313 477.7546,702.1906 Q476.4421,700.5344 476.4421,697.4094 Q476.4421,694.2844 477.7546,692.6281 Q479.0827,690.9719 481.5827,690.9719 Q482.2858,690.9719 482.9265,691.1281 Q483.5827,691.2844 484.1452,691.5813 L484.1452,694.3 Q483.5202,693.7219 482.9265,693.4563 Q482.3327,693.175 481.7077,693.175 Q480.364,693.175 479.6765,694.2531 Q478.989,695.3156 478.989,697.4094 Q478.989,699.5031 479.6765,700.5813 Q480.364,701.6438 481.7077,701.6438 Q482.3327,701.6438 482.9265,701.3781 Q483.5202,701.0969 484.1452,700.5188 L484.1452,703.2375 Z " fill="#000000"/><text fill="#000000" font-family="sans-serif" font-size="14" lengthAdjust="spacing" textLength="107.1396" x="501.6765" y="702.4436">CombatSystem</text><line style="stroke:#181818;stroke-width:0.5;" x1="361.3" x2="716.6926" y1="713.5969" y2="713.5969"/><g data-visibility-modifier="PRIVATE_FIELD"><rect fill="none" height="6" style="stroke:#C82930;stroke-width:1;" width="6" x="368.3" y="724.2453"/></g><text fill="#000000" font-family="sans-serif" font-size="14" lengthAdjust="spacing" textLength="104.5352" x="380.3" y="730.592">game_ : Level*</text><line style="stroke:#181818;stroke-width:0.5;" x1="361.3" x2="716.6926" y1="737.8938" y2="737.8938"/><g data-visibility-modifier="PUBLIC_METHOD"><ellipse cx="371.3" cy="751.5422" fill="#84BE84" rx="3" ry="3" style="stroke:#038048;stroke-width:1;"/></g><text fill="#000000" font-family="sans-serif" font-size="14" lengthAdjust="spacing" textLength="331.3926" x="380.3" y="754.8889">attack(attacker : Entity*, target : Entity*) : bool</text></g><!--class MovementSystem--><g class="entity" data-qualified-name="Service.MovementSystem" data-source-line="47" id="ent0011"><rect fill="#F1F1F1" height="96.8906" rx="2.5" ry="2.5" style="stroke:#181818;stroke-width:0.5;" width="432.7656" x="752.62" y="673.4469"/><ellipse cx="901.5717" cy="689.4469" fill="#ADD1B2" rx="11" ry="11" style="stroke:#181818;stroke-width:1;"/><path d="M904.5404,695.0875 Q903.9623,695.3844 903.3217,695.525 Q902.681,695.6813 901.9779,695.6813 Q899.4779,695.6813 898.1498,694.0406 Q896.8373,692.3844 896.8373,689.2594 Q896.8373,686.1344 898.1498,684.4781 Q899.4779,682.8219 901.9779,682.8219 Q902.681,682.8219 903.3217,682.9781 Q903.9779,683.1344 904.5404,683.4313 L904.5404,686.15 Q903.9154,685.5719 903.3217,685.3063 Q902.7279,685.025 902.1029,685.025 Q900.7592,685.025 900.0717,686.1031 Q899.3842,687.1656 899.3842,689.2594 Q899.3842,691.3531 900.0717,692.4313 Q900.7592,693.4938 902.1029,693.4938 Q902.7279,693.4938 903.3217,693.2281 Q903.9154,692.9469 904.5404,692.3688 L904.5404,695.0875 Z " fill="#000000"/><text fill="#000000" font-family="sans-serif" font-size="14" lengthAdjust="spacing" textLength="126.3623" x="922.0717" y="694.2936">MovementSystem</text><line style="stroke:#181818;stroke-width:0.5;" x1="753.62" x2="1184.3856" y1="705.4469" y2="705.4469"/><g data-visibility-modifier="PRIVATE_FIELD"><rect fill="none" height="6" style="stroke:#C82930;stroke-width:1;" width="6" x="760.62" y="716.0953"/></g><text fill="#000000" font-family="sans-serif" font-size="14" lengthAdjust="spacing" textLength="104.5352" x="772.62" y="722.442">game_ : Level*</text><line style="stroke:#181818;stroke-width:0.5;" x1="753.62" x2="1184.3856" y1="729.7438" y2="729.7438"/><g data-visibility-modifier="PUBLIC_METHOD"><ellipse cx="763.62" cy="743.3922" fill="#84BE84" rx="3" ry="3" style="stroke:#038048;stroke-width:1;"/></g><text fill="#000000" font-family="sans-serif" font-size="14" lengthAdjust="spacing" textLength="297.9512" x="772.62" y="746.7389">move(entity : Entity*, pos : Position) : bool</text><g data-visibility-modifier="PUBLIC_METHOD"><ellipse cx="763.62" cy="759.6891" fill="#84BE84" rx="3" ry="3" style="stroke:#038048;stroke-width:1;"/></g><text fill="#000000" font-family="sans-serif" font-size="14" lengthAdjust="spacing" textLength="406.7656" x="772.62" y="763.0357">find_path(Entity : Entity*, to : Position) : vector&lt;Position&gt;</text></g><!--class SaveSystem--><g class="entity" data-qualified-name="Service.SaveSystem" data-source-line="55" id="ent0013"><rect fill="#F1F1F1" height="145.7813" rx="2.5" ry="2.5" style="stroke:#181818;stroke-width:0.5;" width="236.7725" x="1220.61" y="649.0069"/><ellipse cx="1291.4611" cy="665.0069" fill="#ADD1B2" rx="11" ry="11" style="stroke:#181818;stroke-width:1;"/><path d="M1294.4298,670.6475 Q1293.8517,670.9444 1293.2111,671.085 Q1292.5704,671.2413 1291.8673,671.2413 Q1289.3673,671.2413 1288.0392,669.6006 Q1286.7267,667.9444 1286.7267,664.8194 Q1286.7267,661.6944 1288.0392,660.0381 Q1289.3673,658.3819 1291.8673,658.3819 Q1292.5704,658.3819 1293.2111,658.5381 Q1293.8673,658.6944 1294.4298,658.9913 L1294.4298,661.71 Q1293.8048,661.1319 1293.2111,660.8663 Q1292.6173,660.585 1291.9923,660.585 Q1290.6486,660.585 1289.9611,661.6631 Q1289.2736,662.7256 1289.2736,664.8194 Q1289.2736,666.9131 1289.9611,667.9913 Q1290.6486,669.0538 1291.9923,669.0538 Q1292.6173,669.0538 1293.2111,668.7881 Q1293.8048,668.5069 1294.4298,667.9288 L1294.4298,670.6475 Z " fill="#000000"/><text fill="#000000" font-family="sans-serif" font-size="14" lengthAdjust="spacing" textLength="86.5703" x="1311.9611" y="669.8536">SaveSystem</text><line style="stroke:#181818;stroke-width:0.5;" x1="1221.61" x2="1456.3825" y1="681.0069" y2="681.0069"/><g data-visibility-modifier="PRIVATE_FIELD"><rect fill="none" height="6" style="stroke:#C82930;stroke-width:1;" width="6" x="1228.61" y="691.6553"/></g><text fill="#000000" font-family="sans-serif" font-size="14" lengthAdjust="spacing" textLength="104.5352" x="1240.61" y="698.002">game_ : Level*</text><g data-visibility-modifier="PRIVATE_FIELD"><rect fill="none" height="6" style="stroke:#C82930;stroke-width:1;" width="6" x="1228.61" y="707.9522"/></g><text fill="#000000" font-family="sans-serif" font-size="14" lengthAdjust="spacing" textLength="119.1094" x="1240.61" y="714.2989">save_dir_ : string</text><line style="stroke:#181818;stroke-width:0.5;" x1="1221.61" x2="1456.3825" y1="721.6006" y2="721.6006"/><g data-visibility-modifier="PUBLIC_METHOD"><ellipse cx="1231.61" cy="735.2491" fill="#84BE84" rx="3" ry="3" style="stroke:#038048;stroke-width:1;"/></g><text fill="#000000" font-family="sans-serif" font-size="14" lengthAdjust="spacing" textLength="153.0225" x="1240.61" y="738.5957">get_save_dir() : string</text><g data-visibility-modifier="PUBLIC_METHOD"><ellipse cx="1231.61" cy="751.5459" fill="#84BE84" rx="3" ry="3" style="stroke:#038048;stroke-width:1;"/></g><text fill="#000000" font-family="sans-serif" font-size="14" lengthAdjust="spacing" textLength="169.9619" x="1240.61" y="754.8926">set_save_dir(dir : string)</text><g data-visibility-modifier="PUBLIC_METHOD"><ellipse cx="1231.61" cy="767.8428" fill="#84BE84" rx="3" ry="3" style="stroke:#038048;stroke-width:1;"/></g><text fill="#000000" font-family="sans-serif" font-size="14" lengthAdjust="spacing" textLength="210.7725" x="1240.61" y="771.1895">load_save(dir : string) : Level*</text><g data-visibility-modifier="PUBLIC_METHOD"><ellipse cx="1231.61" cy="784.1397" fill="#84BE84" rx="3" ry="3" style="stroke:#038048;stroke-width:1;"/></g><text fill="#000000" font-family="sans-serif" font-size="14" lengthAdjust="spacing" textLength="187.9473" x="1240.61" y="787.4864">save_game(game : Level*)</text></g><!--class UseItemSystem--><g class="entity" data-qualified-name="Service.UseItemSystem" data-source-line="66" id="ent0015"><rect fill="#F1F1F1" height="80.5938" rx="2.5" ry="2.5" style="stroke:#181818;stroke-width:0.5;" width="434.543" x="1492.73" y="681.5969"/><ellipse cx="1650.6367" cy="697.5969" fill="#ADD1B2" rx="11" ry="11" style="stroke:#181818;stroke-width:1;"/><path d="M1653.6055,703.2375 Q1653.0274,703.5344 1652.3867,703.675 Q1651.7461,703.8313 1651.043,703.8313 Q1648.543,703.8313 1647.2149,702.1906 Q1645.9024,700.5344 1645.9024,697.4094 Q1645.9024,694.2844 1647.2149,692.6281 Q1648.543,690.9719 1651.043,690.9719 Q1651.7461,690.9719 1652.3867,691.1281 Q1653.043,691.2844 1653.6055,691.5813 L1653.6055,694.3 Q1652.9805,693.7219 1652.3867,693.4563 Q1651.793,693.175 1651.168,693.175 Q1649.8242,693.175 1649.1367,694.2531 Q1648.4492,695.3156 1648.4492,697.4094 Q1648.4492,699.5031 1649.1367,700.5813 Q1649.8242,701.6438 1651.168,701.6438 Q1651.793,701.6438 1652.3867,701.3781 Q1652.9805,701.0969 1653.6055,700.5188 L1653.6055,703.2375 Z " fill="#000000"/><text fill="#000000" font-family="sans-serif" font-size="14" lengthAdjust="spacing" textLength="110.2295" x="1671.1367" y="702.4436">UseItemSystem</text><line style="stroke:#181818;stroke-width:0.5;" x1="1493.73" x2="1926.273" y1="713.5969" y2="713.5969"/><g data-visibility-modifier="PRIVATE_FIELD"><rect fill="none" height="6" style="stroke:#C82930;stroke-width:1;" width="6" x="1500.73" y="724.2453"/></g><text fill="#000000" font-family="sans-serif" font-size="14" lengthAdjust="spacing" textLength="104.5352" x="1512.73" y="730.592">game_ : Level*</text><line style="stroke:#181818;stroke-width:0.5;" x1="1493.73" x2="1926.273" y1="737.8938" y2="737.8938"/><g data-visibility-modifier="PUBLIC_METHOD"><ellipse cx="1503.73" cy="751.5422" fill="#84BE84" rx="3" ry="3" style="stroke:#038048;stroke-width:1;"/></g><text fill="#000000" font-family="sans-serif" font-size="14" lengthAdjust="spacing" textLength="408.543" x="1512.73" y="754.8889">use_item(ent : Entity*, target : Entity*, item : Item*) : bool</text></g><!--class AISystem--><g class="entity" data-qualified-name="Service.AISystem" data-source-line="73" id="ent0017"><rect fill="#F1F1F1" height="80.5938" rx="2.5" ry="2.5" style="stroke:#181818;stroke-width:0.5;" width="143.1543" x="1962.42" y="681.5969"/><ellipse cx="1997.779" cy="697.5969" fill="#ADD1B2" rx="11" ry="11" style="stroke:#181818;stroke-width:1;"/><path d="M2000.7477,703.2375 Q2000.1696,703.5344 1999.529,703.675 Q1998.8884,703.8313 1998.1852,703.8313 Q1995.6852,703.8313 1994.3571,702.1906 Q1993.0446,700.5344 1993.0446,697.4094 Q1993.0446,694.2844 1994.3571,692.6281 Q1995.6852,690.9719 1998.1852,690.9719 Q1998.8884,690.9719 1999.529,691.1281 Q2000.1852,691.2844 2000.7477,691.5813 L2000.7477,694.3 Q2000.1227,693.7219 1999.529,693.4563 Q1998.9352,693.175 1998.3102,693.175 Q1996.9665,693.175 1996.279,694.2531 Q1995.5915,695.3156 1995.5915,697.4094 Q1995.5915,699.5031 1996.279,700.5813 Q1996.9665,701.6438 1998.3102,701.6438 Q1998.9352,701.6438 1999.529,701.3781 Q2000.1227,701.0969 2000.7477,700.5188 L2000.7477,703.2375 Z " fill="#000000"/><text fill="#000000" font-family="sans-serif" font-size="14" lengthAdjust="spacing" textLength="65.9121" x="2016.3032" y="702.4436">AISystem</text><line style="stroke:#181818;stroke-width:0.5;" x1="1963.42" x2="2104.5743" y1="713.5969" y2="713.5969"/><g data-visibility-modifier="PRIVATE_FIELD"><rect fill="none" height="6" style="stroke:#C82930;stroke-width:1;" width="6" x="1970.42" y="724.2453"/></g><text fill="#000000" font-family="sans-serif" font-size="14" lengthAdjust="spacing" textLength="104.5352" x="1982.42" y="730.592">game_ : Level*</text><line style="stroke:#181818;stroke-width:0.5;" x1="1963.42" x2="2104.5743" y1="737.8938" y2="737.8938"/><g data-visibility-modifier="PUBLIC_METHOD"><ellipse cx="1973.42" cy="751.5422" fill="#84BE84" rx="3" ry="3" style="stroke:#038048;stroke-width:1;"/></g><text fill="#000000" font-family="sans-serif" font-size="14" lengthAdjust="spacing" textLength="117.1543" x="1982.42" y="754.8889">act(ent : Entity*)</text></g><!--class EventBus--><g class="entity" data-qualified-name="Service.Event.EventBus" data-source-line="81" id="ent0020"><rect fill="#F1F1F1" height="129.4844" rx="2.5" ry="2.5" style="stroke:#181818;stroke-width:0.5;" width="358.3906" x="1129.8" y="121.2969"/><ellipse cx="1271.8063" cy="137.2969" fill="#ADD1B2" rx="11" ry="11" style="stroke:#181818;stroke-width:1;"/><path d="M1274.7751,142.9375 Q1274.197,143.2344 1273.5563,143.375 Q1272.9157,143.5313 1272.2126,143.5313 Q1269.7126,143.5313 1268.3845,141.8906 Q1267.072,140.2344 1267.072,137.1094 Q1267.072,133.9844 1268.3845,132.3281 Q1269.7126,130.6719 1272.2126,130.6719 Q1272.9157,130.6719 1273.5563,130.8281 Q1274.2126,130.9844 1274.7751,131.2813 L1274.7751,134 Q1274.1501,133.4219 1273.5563,133.1563 Q1272.9626,132.875 1272.3376,132.875 Q1270.9938,132.875 1270.3063,133.9531 Q1269.6188,135.0156 1269.6188,137.1094 Q1269.6188,139.2031 1270.3063,140.2813 Q1270.9938,141.3438 1272.3376,141.3438 Q1272.9626,141.3438 1273.5563,141.0781 Q1274.1501,140.7969 1274.7751,140.2188 L1274.7751,142.9375 Z " fill="#000000"/><text fill="#000000" font-family="sans-serif" font-size="14" lengthAdjust="spacing" textLength="65.8779" x="1292.3063" y="142.1436">EventBus</text><line style="stroke:#181818;stroke-width:0.5;" x1="1130.8" x2="1487.1906" y1="153.2969" y2="153.2969"/><g data-visibility-modifier="PRIVATE_FIELD"><rect fill="none" height="6" style="stroke:#C82930;stroke-width:1;" width="6" x="1137.8" y="163.9453"/></g><text fill="#000000" font-family="sans-serif" font-size="14" lengthAdjust="spacing" textLength="213.9102" x="1149.8" y="170.292">eventQueue : queue&lt;Event*&gt;</text><line style="stroke:#181818;stroke-width:0.5;" x1="1130.8" x2="1487.1906" y1="177.5938" y2="177.5938"/><g data-visibility-modifier="PRIVATE_METHOD"><rect fill="#F24D5C" height="6" style="stroke:#C82930;stroke-width:1;" width="6" x="1137.8" y="188.2422"/></g><text fill="#000000" font-family="sans-serif" font-size="14" lengthAdjust="spacing" textLength="332.3906" x="1149.8" y="194.5889">handlers_ : map&lt;type, vector&lt;func(Event*)&gt;&gt;</text><g data-visibility-modifier="PUBLIC_METHOD"><ellipse cx="1140.8" cy="207.5391" fill="#84BE84" rx="3" ry="3" style="stroke:#038048;stroke-width:1;"/></g><text fill="#000000" font-family="sans-serif" font-size="14" lengthAdjust="spacing" textLength="234.0625" x="1149.8" y="210.8857">subscribe&lt;T&gt;(handler : func(T*))</text><g data-visibility-modifier="PUBLIC_METHOD"><ellipse cx="1140.8" cy="223.8359" fill="#84BE84" rx="3" ry="3" style="stroke:#038048;stroke-width:1;"/></g><text fill="#000000" font-family="sans-serif" font-size="14" lengthAdjust="spacing" textLength="162.1143" x="1149.8" y="227.1826">publish(event : Event*)</text><g data-visibility-modifier="PUBLIC_METHOD"><ellipse cx="1140.8" cy="240.1328" fill="#84BE84" rx="3" ry="3" style="stroke:#038048;stroke-width:1;"/></g><text fill="#000000" font-family="sans-serif" font-size="14" lengthAdjust="spacing" textLength="65.0303" x="1149.8" y="243.4795">process()</text></g><!--class EventBase--><g class="entity" data-qualified-name="Service.Event.EventBase" data-source-line="90" id="ent0021"><rect fill="#F1F1F1" height="48" rx="2.5" ry="2.5" style="stroke:#181818;stroke-width:0.5;" width="106.1973" x="506.9" y="162.0369"/><ellipse cx="521.9" cy="178.0369" fill="#B4A7E5" rx="11" ry="11" style="stroke:#181818;stroke-width:1;"/><path d="M517.8219,173.8025 L517.8219,171.6463 L525.2125,171.6463 L525.2125,173.8025 L522.7438,173.8025 L522.7438,181.8806 L525.2125,181.8806 L525.2125,184.0369 L517.8219,184.0369 L517.8219,181.8806 L520.2906,181.8806 L520.2906,173.8025 L517.8219,173.8025 Z " fill="#000000"/><text fill="#000000" font-family="sans-serif" font-size="14" font-style="italic" lengthAdjust="spacing" textLength="74.1973" x="535.9" y="182.8836">EventBase</text><line style="stroke:#181818;stroke-width:0.5;" x1="507.9" x2="612.0973" y1="194.0369" y2="194.0369"/><line style="stroke:#181818;stroke-width:0.5;" x1="507.9" x2="612.0973" y1="202.0369" y2="202.0369"/></g><!--class MoveEvent--><g class="entity" data-qualified-name="Service.Event.MoveEvent" data-source-line="93" id="ent0022"><rect fill="#F1F1F1" height="96.8906" rx="2.5" ry="2.5" style="stroke:#181818;stroke-width:0.5;" width="127.5137" x="54.24" y="335.2269"/><ellipse cx="77.2789" cy="351.2269" fill="#ADD1B2" rx="11" ry="11" style="stroke:#181818;stroke-width:1;"/><path d="M80.2477,356.8675 Q79.6695,357.1644 79.0289,357.305 Q78.3883,357.4613 77.6852,357.4613 Q75.1852,357.4613 73.857,355.8206 Q72.5445,354.1644 72.5445,351.0394 Q72.5445,347.9144 73.857,346.2581 Q75.1852,344.6019 77.6852,344.6019 Q78.3883,344.6019 79.0289,344.7581 Q79.6852,344.9144 80.2477,345.2113 L80.2477,347.93 Q79.6227,347.3519 79.0289,347.0863 Q78.4352,346.805 77.8102,346.805 Q76.4664,346.805 75.7789,347.8831 Q75.0914,348.9456 75.0914,351.0394 Q75.0914,353.1331 75.7789,354.2113 Q76.4664,355.2738 77.8102,355.2738 Q78.4352,355.2738 79.0289,355.0081 Q79.6227,354.7269 80.2477,354.1488 L80.2477,356.8675 Z " fill="#000000"/><text fill="#000000" font-family="sans-serif" font-size="14" lengthAdjust="spacing" textLength="77.6494" x="93.0653" y="356.0736">MoveEvent</text><line style="stroke:#181818;stroke-width:0.5;" x1="55.24" x2="180.7537" y1="367.2269" y2="367.2269"/><g data-visibility-modifier="PUBLIC_FIELD"><ellipse cx="65.24" cy="380.8753" fill="none" rx="3" ry="3" style="stroke:#038048;stroke-width:1;"/></g><text fill="#000000" font-family="sans-serif" font-size="14" lengthAdjust="spacing" textLength="99.2988" x="74.24" y="384.222">entity_id : id_t</text><g data-visibility-modifier="PUBLIC_FIELD"><ellipse cx="65.24" cy="397.1722" fill="none" rx="3" ry="3" style="stroke:#038048;stroke-width:1;"/></g><text fill="#000000" font-family="sans-serif" font-size="14" lengthAdjust="spacing" textLength="101.5137" x="74.24" y="400.5189">from : Position</text><g data-visibility-modifier="PUBLIC_FIELD"><ellipse cx="65.24" cy="413.4691" fill="none" rx="3" ry="3" style="stroke:#038048;stroke-width:1;"/></g><text fill="#000000" font-family="sans-serif" font-size="14" lengthAdjust="spacing" textLength="82.6807" x="74.24" y="416.8157">to : Position</text><line style="stroke:#181818;stroke-width:0.5;" x1="55.24" x2="180.7537" y1="424.1175" y2="424.1175"/></g><!--class DamageEvent--><g class="entity" data-qualified-name="Service.Event.DamageEvent" data-source-line="101" id="ent0024"><rect fill="#F1F1F1" height="96.8906" rx="2.5" ry="2.5" style="stroke:#181818;stroke-width:0.5;" width="142.9697" x="216.52" y="335.2269"/><ellipse cx="236.8242" cy="351.2269" fill="#ADD1B2" rx="11" ry="11" style="stroke:#181818;stroke-width:1;"/><path d="M239.7929,356.8675 Q239.2148,357.1644 238.5742,357.305 Q237.9336,357.4613 237.2304,357.4613 Q234.7304,357.4613 233.4023,355.8206 Q232.0898,354.1644 232.0898,351.0394 Q232.0898,347.9144 233.4023,346.2581 Q234.7304,344.6019 237.2304,344.6019 Q237.9336,344.6019 238.5742,344.7581 Q239.2304,344.9144 239.7929,345.2113 L239.7929,347.93 Q239.1679,347.3519 238.5742,347.0863 Q237.9804,346.805 237.3554,346.805 Q236.0117,346.805 235.3242,347.8831 Q234.6367,348.9456 234.6367,351.0394 Q234.6367,353.1331 235.3242,354.2113 Q236.0117,355.2738 237.3554,355.2738 Q237.9804,355.2738 238.5742,355.0081 Q239.1679,354.7269 239.7929,354.1488 L239.7929,356.8675 Z " fill="#000000"/><text fill="#000000" font-family="sans-serif" font-size="14" lengthAdjust="spacing" textLength="99.1826" x="252.0029" y="356.0736">DamageEvent</text><line style="stroke:#181818;stroke-width:0.5;" x1="217.52" x2="358.4897" y1="367.2269" y2="367.2269"/><g data-visibility-modifier="PUBLIC_FIELD"><ellipse cx="227.52" cy="380.8753" fill="none" rx="3" ry="3" style="stroke:#038048;stroke-width:1;"/></g><text fill="#000000" font-family="sans-serif" font-size="14" lengthAdjust="spacing" textLength="116.9697" x="236.52" y="384.222">attacker_id : id_t</text><g data-visibility-modifier="PUBLIC_FIELD"><ellipse cx="227.52" cy="397.1722" fill="none" rx="3" ry="3" style="stroke:#038048;stroke-width:1;"/></g><text fill="#000000" font-family="sans-serif" font-size="14" lengthAdjust="spacing" textLength="101.4727" x="236.52" y="400.5189">target_id : id_t</text><g data-visibility-modifier="PUBLIC_FIELD"><ellipse cx="227.52" cy="413.4691" fill="none" rx="3" ry="3" style="stroke:#038048;stroke-width:1;"/></g><text fill="#000000" font-family="sans-serif" font-size="14" lengthAdjust="spacing" textLength="85.8867" x="236.52" y="416.8157">amount : int</text><line style="stroke:#181818;stroke-width:0.5;" x1="217.52" x2="358.4897" y1="424.1175" y2="424.1175"/></g><!--class ItemPickedEvent--><g class="entity" data-qualified-name="Service.Event.ItemPickedEvent" data-source-line="109" id="ent0026"><rect fill="#F1F1F1" height="80.5938" rx="2.5" ry="2.5" style="stroke:#181818;stroke-width:0.5;" width="149.6123" x="394.19" y="343.3769"/><ellipse cx="409.19" cy="359.3769" fill="#ADD1B2" rx="11" ry="11" style="stroke:#181818;stroke-width:1;"/><path d="M412.1588,365.0175 Q411.5806,365.3144 410.94,365.455 Q410.2994,365.6113 409.5963,365.6113 Q407.0963,365.6113 405.7681,363.9706 Q404.4556,362.3144 404.4556,359.1894 Q404.4556,356.0644 405.7681,354.4081 Q407.0963,352.7519 409.5963,352.7519 Q410.2994,352.7519 410.94,352.9081 Q411.5963,353.0644 412.1588,353.3613 L412.1588,356.08 Q411.5338,355.5019 410.94,355.2363 Q410.3463,354.955 409.7213,354.955 Q408.3775,354.955 407.69,356.0331 Q407.0025,357.0956 407.0025,359.1894 Q407.0025,361.2831 407.69,362.3613 Q408.3775,363.4238 409.7213,363.4238 Q410.3463,363.4238 410.94,363.1581 Q411.5338,362.8769 412.1588,362.2988 L412.1588,365.0175 Z " fill="#000000"/><text fill="#000000" font-family="sans-serif" font-size="14" lengthAdjust="spacing" textLength="117.6123" x="423.19" y="364.2236">ItemPickedEvent</text><line style="stroke:#181818;stroke-width:0.5;" x1="395.19" x2="542.8023" y1="375.3769" y2="375.3769"/><g data-visibility-modifier="PUBLIC_FIELD"><ellipse cx="405.19" cy="389.0253" fill="none" rx="3" ry="3" style="stroke:#038048;stroke-width:1;"/></g><text fill="#000000" font-family="sans-serif" font-size="14" lengthAdjust="spacing" textLength="99.2988" x="414.19" y="392.372">entity_id : id_t</text><g data-visibility-modifier="PUBLIC_FIELD"><ellipse cx="405.19" cy="405.3222" fill="none" rx="3" ry="3" style="stroke:#038048;stroke-width:1;"/></g><text fill="#000000" font-family="sans-serif" font-size="14" lengthAdjust="spacing" textLength="90.2891" x="414.19" y="408.6689">item_id : id_t</text><line style="stroke:#181818;stroke-width:0.5;" x1="395.19" x2="542.8023" y1="415.9706" y2="415.9706"/></g><!--class EntityDiedEvent--><g class="entity" data-qualified-name="Service.Event.EntityDiedEvent" data-source-line="116" id="ent0028"><rect fill="#F1F1F1" height="80.5938" rx="2.5" ry="2.5" style="stroke:#181818;stroke-width:0.5;" width="145.1484" x="578.43" y="343.3769"/><ellipse cx="593.43" cy="359.3769" fill="#ADD1B2" rx="11" ry="11" style="stroke:#181818;stroke-width:1;"/><path d="M596.3988,365.0175 Q595.8206,365.3144 595.18,365.455 Q594.5394,365.6113 593.8363,365.6113 Q591.3363,365.6113 590.0081,363.9706 Q588.6956,362.3144 588.6956,359.1894 Q588.6956,356.0644 590.0081,354.4081 Q591.3363,352.7519 593.8363,352.7519 Q594.5394,352.7519 595.18,352.9081 Q595.8363,353.0644 596.3988,353.3613 L596.3988,356.08 Q595.7738,355.5019 595.18,355.2363 Q594.5863,354.955 593.9613,354.955 Q592.6175,354.955 591.93,356.0331 Q591.2425,357.0956 591.2425,359.1894 Q591.2425,361.2831 591.93,362.3613 Q592.6175,363.4238 593.9613,363.4238 Q594.5863,363.4238 595.18,363.1581 Q595.7738,362.8769 596.3988,362.2988 L596.3988,365.0175 Z " fill="#000000"/><text fill="#000000" font-family="sans-serif" font-size="14" lengthAdjust="spacing" textLength="113.1484" x="607.43" y="364.2236">EntityDiedEvent</text><line style="stroke:#181818;stroke-width:0.5;" x1="579.43" x2="722.5784" y1="375.3769" y2="375.3769"/><g data-visibility-modifier="PUBLIC_FIELD"><ellipse cx="589.43" cy="389.0253" fill="none" rx="3" ry="3" style="stroke:#038048;stroke-width:1;"/></g><text fill="#000000" font-family="sans-serif" font-size="14" lengthAdjust="spacing" textLength="99.2988" x="598.43" y="392.372">entity_id : id_t</text><g data-visibility-modifier="PUBLIC_FIELD"><ellipse cx="589.43" cy="405.3222" fill="none" rx="3" ry="3" style="stroke:#038048;stroke-width:1;"/></g><text fill="#000000" font-family="sans-serif" font-size="14" lengthAdjust="spacing" textLength="92.8047" x="598.43" y="408.6689">killer_id : id_t</text><line style="stroke:#181818;stroke-width:0.5;" x1="579.43" x2="722.5784" y1="415.9706" y2="415.9706"/></g><!--class SaveRequestedEvent--><g class="entity" data-qualified-name="Service.Event.SaveRequestedEvent" data-source-line="123" id="ent0030"><rect fill="#F1F1F1" height="64.2969" rx="2.5" ry="2.5" style="stroke:#181818;stroke-width:0.5;" width="181.4678" x="758.27" y="351.5169"/><ellipse cx="773.27" cy="367.5169" fill="#ADD1B2" rx="11" ry="11" style="stroke:#181818;stroke-width:1;"/><path d="M776.2388,373.1575 Q775.6606,373.4544 775.02,373.595 Q774.3794,373.7513 773.6763,373.7513 Q771.1763,373.7513 769.8481,372.1106 Q768.5356,370.4544 768.5356,367.3294 Q768.5356,364.2044 769.8481,362.5481 Q771.1763,360.8919 773.6763,360.8919 Q774.3794,360.8919 775.02,361.0481 Q775.6763,361.2044 776.2388,361.5013 L776.2388,364.22 Q775.6138,363.6419 775.02,363.3763 Q774.4263,363.095 773.8013,363.095 Q772.4575,363.095 771.77,364.1731 Q771.0825,365.2356 771.0825,367.3294 Q771.0825,369.4231 771.77,370.5013 Q772.4575,371.5638 773.8013,371.5638 Q774.4263,371.5638 775.02,371.2981 Q775.6138,371.0169 776.2388,370.4388 L776.2388,373.1575 Z " fill="#000000"/><text fill="#000000" font-family="sans-serif" font-size="14" lengthAdjust="spacing" textLength="149.4678" x="787.27" y="372.3636">SaveRequestedEvent</text><line style="stroke:#181818;stroke-width:0.5;" x1="759.27" x2="938.7378" y1="383.5169" y2="383.5169"/><g data-visibility-modifier="PUBLIC_FIELD"><ellipse cx="769.27" cy="397.1653" fill="none" rx="3" ry="3" style="stroke:#038048;stroke-width:1;"/></g><text fill="#000000" font-family="sans-serif" font-size="14" lengthAdjust="spacing" textLength="133.2803" x="778.27" y="400.512">save_name : string</text><line style="stroke:#181818;stroke-width:0.5;" x1="759.27" x2="938.7378" y1="407.8138" y2="407.8138"/></g><!--class ItemUsedEvent--><g class="entity" data-qualified-name="Service.Event.ItemUsedEvent" data-source-line="129" id="ent0032"><rect fill="#F1F1F1" height="96.8906" rx="2.5" ry="2.5" style="stroke:#181818;stroke-width:0.5;" width="139.0166" x="974.49" y="335.2269"/><ellipse cx="989.49" cy="351.2269" fill="#ADD1B2" rx="11" ry="11" style="stroke:#181818;stroke-width:1;"/><path d="M992.4588,356.8675 Q991.8806,357.1644 991.24,357.305 Q990.5994,357.4613 989.8963,357.4613 Q987.3963,357.4613 986.0681,355.8206 Q984.7556,354.1644 984.7556,351.0394 Q984.7556,347.9144 986.0681,346.2581 Q987.3963,344.6019 989.8963,344.6019 Q990.5994,344.6019 991.24,344.7581 Q991.8963,344.9144 992.4588,345.2113 L992.4588,347.93 Q991.8338,347.3519 991.24,347.0863 Q990.6463,346.805 990.0213,346.805 Q988.6775,346.805 987.99,347.8831 Q987.3025,348.9456 987.3025,351.0394 Q987.3025,353.1331 987.99,354.2113 Q988.6775,355.2738 990.0213,355.2738 Q990.6463,355.2738 991.24,355.0081 Q991.8338,354.7269 992.4588,354.1488 L992.4588,356.8675 Z " fill="#000000"/><text fill="#000000" font-family="sans-serif" font-size="14" lengthAdjust="spacing" textLength="107.0166" x="1003.49" y="356.0736">ItemUsedEvent</text><line style="stroke:#181818;stroke-width:0.5;" x1="975.49" x2="1112.5066" y1="367.2269" y2="367.2269"/><g data-visibility-modifier="PUBLIC_FIELD"><ellipse cx="985.49" cy="380.8753" fill="none" rx="3" ry="3" style="stroke:#038048;stroke-width:1;"/></g><text fill="#000000" font-family="sans-serif" font-size="14" lengthAdjust="spacing" textLength="89.1953" x="994.49" y="384.222">user_id : id_t</text><g data-visibility-modifier="PUBLIC_FIELD"><ellipse cx="985.49" cy="397.1722" fill="none" rx="3" ry="3" style="stroke:#038048;stroke-width:1;"/></g><text fill="#000000" font-family="sans-serif" font-size="14" lengthAdjust="spacing" textLength="101.4727" x="994.49" y="400.5189">target_id : id_t</text><g data-visibility-modifier="PUBLIC_FIELD"><ellipse cx="985.49" cy="413.4691" fill="none" rx="3" ry="3" style="stroke:#038048;stroke-width:1;"/></g><text fill="#000000" font-family="sans-serif" font-size="14" lengthAdjust="spacing" textLength="90.2891" x="994.49" y="416.8157">item_id : id_t</text><line style="stroke:#181818;stroke-width:0.5;" x1="975.49" x2="1112.5066" y1="424.1175" y2="424.1175"/></g><!--reverse link GameSystem to ISystem--><g class="link" data-entity-1="ent0004" data-entity-2="ent0005" data-link-type="composition" data-source-line="14" id="lnk6"><path codeLine="14" d="M1907.73,287.5969 C1907.73,311.1969 1907.73,323.4969 1907.73,343.0669" fill="none" id="GameSystem-backto-ISystem" style="stroke:#181818;stroke-width:1;"/><polygon fill="#181818" points="1907.73,275.5969,1903.73,281.5969,1907.73,287.5969,1911.73,281.5969,1907.73,275.5969" style="stroke:#181818;stroke-width:1;"/></g><!--reverse link ISystem to DefaultSystem--><g class="link" data-entity-1="ent0005" data-entity-2="ent0007" data-link-type="extension" data-source-line="32" id="lnk8"><path codeLine="32" d="M1680.09,383.7869 C1621.79,383.7869 1581.14,383.7869 1581.14,383.7869 C1581.14,383.7869 1581.14,445.7969 1581.14,491.8169" fill="none" id="ISystem-backto-DefaultSystem" style="stroke:#181818;stroke-width:1;stroke-dasharray:7,7;"/><polygon fill="none" points="1698.09,383.7869,1680.09,377.7869,1680.09,389.7869,1698.09,383.7869" style="stroke:#181818;stroke-width:1;"/></g><!--reverse link DefaultSystem to CombatSystem--><g class="link" data-entity-1="ent0007" data-entity-2="ent0009" data-link-type="extension" data-source-line="40" id="lnk10"><path codeLine="40" d="M1391.04,524.7869 C1153.39,524.7869 648.06,524.7869 648.06,524.7869 C648.06,524.7869 648.06,623.8669 648.06,681.5369" fill="none" id="DefaultSystem-backto-CombatSystem" style="stroke:#181818;stroke-width:1;"/><polygon fill="none" points="1409.04,524.7869,1391.04,518.7869,1391.04,530.7869,1409.04,524.7869" style="stroke:#181818;stroke-width:1;"/></g><!--reverse link DefaultSystem to MovementSystem--><g class="link" data-entity-1="ent0007" data-entity-2="ent0011" data-link-type="extension" data-source-line="47" id="lnk12"><path codeLine="47" d="M1391.07,556.7869 C1283.62,556.7869 1157.59,556.7869 1157.59,556.7869 C1157.59,556.7869 1157.59,624.5469 1157.59,673.2469" fill="none" id="DefaultSystem-backto-MovementSystem" style="stroke:#181818;stroke-width:1;"/><polygon fill="none" points="1409.07,556.7869,1391.07,550.7869,1391.07,562.7869,1409.07,556.7869" style="stroke:#181818;stroke-width:1;"/></g><!--reverse link DefaultSystem to SaveSystem--><g class="link" data-entity-1="ent0007" data-entity-2="ent0013" data-link-type="extension" data-source-line="55" id="lnk14"><path codeLine="55" d="M1433.38,607.1569 C1433.38,625.4069 1433.38,628.5869 1433.38,648.5969" fill="none" id="DefaultSystem-backto-SaveSystem" style="stroke:#181818;stroke-width:1;"/><polygon fill="none" points="1433.38,589.1569,1427.38,607.1569,1439.38,607.1569,1433.38,589.1569" style="stroke:#181818;stroke-width:1;"/></g><!--reverse link DefaultSystem to UseItemSystem--><g class="link" data-entity-1="ent0007" data-entity-2="ent0015" data-link-type="extension" data-source-line="66" id="lnk16"><path codeLine="66" d="M1565.68,607.1569 C1565.68,635.8969 1565.68,653.8969 1565.68,681.1469" fill="none" id="DefaultSystem-backto-UseItemSystem" style="stroke:#181818;stroke-width:1;"/><polygon fill="none" points="1565.68,589.1569,1559.68,607.1569,1571.68,607.1569,1565.68,589.1569" style="stroke:#181818;stroke-width:1;"/></g><!--reverse link DefaultSystem to AISystem--><g class="link" data-entity-1="ent0007" data-entity-2="ent0017" data-link-type="extension" data-source-line="73" id="lnk18"><path codeLine="73" d="M1657.09,540.7869 C1807.51,540.7869 2034,540.7869 2034,540.7869 C2034,540.7869 2034,627.8569 2034,681.2469" fill="none" id="DefaultSystem-backto-AISystem" style="stroke:#181818;stroke-width:1;"/><polygon fill="none" points="1639.09,540.7869,1657.09,546.7869,1657.09,534.7869,1639.09,540.7869" style="stroke:#181818;stroke-width:1;"/></g><!--reverse link EventBase to MoveEvent--><g class="link" data-entity-1="ent0021" data-entity-2="ent0022" data-link-type="extension" data-source-line="93" id="lnk23"><path codeLine="93" d="M488.68,186.7869 C371.13,186.7869 118,186.7869 118,186.7869 C118,186.7869 118,276.4369 118,334.7469" fill="none" id="EventBase-backto-MoveEvent" style="stroke:#181818;stroke-width:1;stroke-dasharray:7,7;"/><polygon fill="none" points="506.68,186.7869,488.68,180.7869,488.68,192.7869,506.68,186.7869" style="stroke:#181818;stroke-width:1;"/></g><!--reverse link EventBase to DamageEvent--><g class="link" data-entity-1="ent0021" data-entity-2="ent0024" data-link-type="extension" data-source-line="101" id="lnk25"><path codeLine="101" d="M519.2,228.2169 C519.2,271.7369 519.2,340.7869 519.2,340.7869 C519.2,340.7869 427.76,340.7869 359.89,340.7869" fill="none" id="EventBase-backto-DamageEvent" style="stroke:#181818;stroke-width:1;stroke-dasharray:7,7;"/><polygon fill="none" points="519.2,210.2169,513.2,228.2169,525.2,228.2169,519.2,210.2169" style="stroke:#181818;stroke-width:1;"/></g><!--reverse link EventBase to ItemPickedEvent--><g class="link" data-entity-1="ent0021" data-entity-2="ent0026" data-link-type="extension" data-source-line="109" id="lnk27"><path codeLine="109" d="M531.5,228.2669 C531.5,261.3569 531.5,303.1169 531.5,343.0969" fill="none" id="EventBase-backto-ItemPickedEvent" style="stroke:#181818;stroke-width:1;stroke-dasharray:7,7;"/><polygon fill="none" points="531.5,210.2669,525.5,228.2669,537.5,228.2669,531.5,210.2669" style="stroke:#181818;stroke-width:1;"/></g><!--reverse link EventBase to EntityDiedEvent--><g class="link" data-entity-1="ent0021" data-entity-2="ent0028" data-link-type="extension" data-source-line="116" id="lnk29"><path codeLine="116" d="M589.98,228.2669 C589.98,261.3569 589.98,303.1169 589.98,343.0969" fill="none" id="EventBase-backto-EntityDiedEvent" style="stroke:#181818;stroke-width:1;stroke-dasharray:7,7;"/><polygon fill="none" points="589.98,210.2669,583.98,228.2669,595.98,228.2669,589.98,210.2669" style="stroke:#181818;stroke-width:1;"/></g><!--reverse link EventBase to SaveRequestedEvent--><g class="link" data-entity-1="ent0021" data-entity-2="ent0030" data-link-type="extension" data-source-line="123" id="lnk31"><path codeLine="123" d="M631.34,186.7869 C714.85,186.7869 849,186.7869 849,186.7869 C849,186.7869 849,295.2369 849,351.1569" fill="none" id="EventBase-backto-SaveRequestedEvent" style="stroke:#181818;stroke-width:1;stroke-dasharray:7,7;"/><polygon fill="none" points="613.34,186.7869,631.34,192.7869,631.34,180.7869,613.34,186.7869" style="stroke:#181818;stroke-width:1;"/></g><!--reverse link EventBase to ItemUsedEvent--><g class="link" data-entity-1="ent0021" data-entity-2="ent0032" data-link-type="extension" data-source-line="129" id="lnk33"><path codeLine="129" d="M601.54,228.2369 C601.54,271.3169 601.54,338.7869 601.54,338.7869 C601.54,338.7869 849.78,338.7869 974.38,338.7869" fill="none" id="EventBase-backto-ItemUsedEvent" style="stroke:#181818;stroke-width:1;stroke-dasharray:7,7;"/><polygon fill="none" points="601.54,210.2369,595.54,228.2369,607.54,228.2369,601.54,210.2369" style="stroke:#181818;stroke-width:1;"/></g><?plantuml-src bLNRRgCm47tdAwm-h21f-m6hA58lqIfIgtQRxhuY1oQ9LODPsqIAjltt7Hi3XX2IVGY8EUEPC-Cv4_N1ye9Acf4dbeC-5424r3iH19ff3kJbvPMi5c-_bm-B82Xeya6tGAvM8FSiWIloDo0auLGfiZee3TappT51MZiXDx27NCVhKiNaErcOZ_jILP2o_XROGwA5d2sh49EvTPXkGSVD-J3o0dnh7LmK2oSYLze6atuqvwqyRtmFf8tGyIl0nm-QGMKaaviRuXo2fbGFTtLkqM8gUKB2V5BP2auF86DTojn0Qo5uKtcSRQKnTffshcMsO6uos7AzNBQu2k5xtc2H0pMLEdGV1IqLX4sfBDSWDpI1kafNqRGiKgfXADpulTYeTQpPv-qjUOGDBRdkDx5ZFZylvyVX16DBg9jizect-Y2oDJrYvLj7BdTAjKOjXDKBvntPv2YOm-IQOBUHQsk9sii_nULPx273OlfiklOnFXbwXc0J-bmAOGRzLIYccSWZVmod6vQdSK7rBbmSdTEYTynffJRDHufPqJtq2sbjOufHw1Mdp2f3QSdohITqXzcRzq7bW_XhO3UkND3KEdJ1le1C1CCfD8-B1kYNWYL-z4ljcCUk37KOC_GnrpOsFzV4UE6t2Nl9DDqTBQoxvGKJdUWkawRsPkjRmLsv85NaMeFEYB5tD4yvIAlWZ1OpyvToNS_FfioJq9wPHFDvVSJA-cS9fMdy7_EULJwrnrILQvL8jeRP-pnq6T3NXdkVH57jLvHhpjGkj17h5J5fOIaIKChjGbiSmLd7Tk-Q_on_9rRLKGKDviuG3x9BpYZLccgy5R0rDm6GHINJcAL8aAMnRf6D59adl1RewF4CbKUQuMqDaF40dqwzmuO8LRCuXD1CbBR5sAqpXCpSlZ9CaGwGwe6NzSa8uiX-AdqrpeziC7qFl2pz1-Dye5-d29ZbzmOuroZ18Gx7k4_3RgQyMahUtXjlDowXKyrk83y9xgB_lFyJLr0_luAlVm00?></g></svg>