<svg xmlns="http://www.w3.org/2000/svg" xmlns:xlink="http://www.w3.org/1999/xlink" contentStyleType="text/css" data-diagram-type="CLASS" height="813px" preserveAspectRatio="none" style="width:782px;height:813px;background:#FFFFFF;" version="1.1" viewBox="0 0 782 813" width="782px" zoomAndPan="magnify"><?plantuml 1.2026.3beta6?><defs/><g><g class="title" data-source-line="3"><text fill="#000000" font-family="sans-serif" font-size="14" font-weight="700" lengthAdjust="spacing" textLength="139.1045" x="317.9478" y="22.9951">OOP REPOSITORY</text></g><!--cluster Level--><g class="cluster" data-qualified-name="Level" data-source-line="5" id="ent0002"><path d="M8.5,43.2969 L51.3359,43.2969 A3.75,3.75 0 0 1 53.8359,45.7969 L60.8359,65.5938 L764.5,65.5938 A2.5,2.5 0 0 1 767,68.0938 L767,795.8169 A2.5,2.5 0 0 1 764.5,798.3169 L8.5,798.3169 A2.5,2.5 0 0 1 6,795.8169 L6,45.7969 A2.5,2.5 0 0 1 8.5,43.2969" fill="none" style="stroke:#000000;stroke-width:1.5;"/><line style="stroke:#000000;stroke-width:1.5;" x1="6" x2="60.8359" y1="65.5938" y2="65.5938"/><text fill="#000000" font-family="sans-serif" font-size="14" font-weight="700" lengthAdjust="spacing" textLength="41.8359" x="10" y="58.292">Level</text></g><!--class Missions--><g class="entity" data-qualified-name="Level.Missions" data-source-line="6" id="ent0003"><rect fill="#F1F1F1" height="129.4844" rx="2.5" ry="2.5" style="stroke:#181818;stroke-width:0.5;" width="265.3535" x="22.32" y="110.8969"/><ellipse cx="121.1574" cy="126.8969" fill="#ADD1B2" rx="11" ry="11" style="stroke:#181818;stroke-width:1;"/><path d="M124.1262,132.5375 Q123.548,132.8344 122.9074,132.975 Q122.2668,133.1313 121.5637,133.1313 Q119.0637,133.1313 117.7355,131.4906 Q116.423,129.8344 116.423,126.7094 Q116.423,123.5844 117.7355,121.9281 Q119.0637,120.2719 121.5637,120.2719 Q122.2668,120.2719 122.9074,120.4281 Q123.5637,120.5844 124.1262,120.8813 L124.1262,123.6 Q123.5012,123.0219 122.9074,122.7563 Q122.3137,122.475 121.6887,122.475 Q120.3449,122.475 119.6574,123.5531 Q118.9699,124.6156 118.9699,126.7094 Q118.9699,128.8031 119.6574,129.8813 Q120.3449,130.9438 121.6887,130.9438 Q122.3137,130.9438 122.9074,130.6781 Q123.5012,130.3969 124.1262,129.8188 L124.1262,132.5375 Z " fill="#000000"/><text fill="#000000" font-family="sans-serif" font-size="14" lengthAdjust="spacing" textLength="59.1787" x="141.6574" y="131.7436">Missions</text><line style="stroke:#181818;stroke-width:0.5;" x1="23.32" x2="286.6735" y1="142.8969" y2="142.8969"/><g data-visibility-modifier="PRIVATE_FIELD"><rect fill="none" height="6" style="stroke:#C82930;stroke-width:1;" width="6" x="30.32" y="153.5453"/></g><text fill="#000000" font-family="sans-serif" font-size="14" lengthAdjust="spacing" textLength="193.4229" x="42.32" y="159.892">missions_ : vector&lt;Level*&gt;</text><g data-visibility-modifier="PRIVATE_FIELD"><rect fill="none" height="6" style="stroke:#C82930;stroke-width:1;" width="6" x="30.32" y="169.8422"/></g><text fill="#000000" font-family="sans-serif" font-size="14" lengthAdjust="spacing" textLength="112.9912" x="42.32" y="176.1889">current_lvl_ : int</text><line style="stroke:#181818;stroke-width:0.5;" x1="23.32" x2="286.6735" y1="183.4906" y2="183.4906"/><g data-visibility-modifier="PUBLIC_METHOD"><ellipse cx="33.32" cy="197.1391" fill="#84BE84" rx="3" ry="3" style="stroke:#038048;stroke-width:1;"/></g><text fill="#000000" font-family="sans-serif" font-size="14" lengthAdjust="spacing" textLength="190.0801" x="42.32" y="200.4857">get_current_level() : Level*</text><g data-visibility-modifier="PUBLIC_METHOD"><ellipse cx="33.32" cy="213.4359" fill="#84BE84" rx="3" ry="3" style="stroke:#038048;stroke-width:1;"/></g><text fill="#000000" font-family="sans-serif" font-size="14" lengthAdjust="spacing" textLength="239.3535" x="42.32" y="216.7826">set_current_level(level : int) : bool</text><g data-visibility-modifier="PUBLIC_METHOD"><ellipse cx="33.32" cy="229.7328" fill="#84BE84" rx="3" ry="3" style="stroke:#038048;stroke-width:1;"/></g><text fill="#000000" font-family="sans-serif" font-size="14" lengthAdjust="spacing" textLength="168.6768" x="42.32" y="233.0795">add_level(level : Level*)</text></g><!--class Level--><g class="entity" data-qualified-name="Level.Level" data-source-line="14" id="ent0004"><rect fill="#F1F1F1" height="227.2656" rx="2.5" ry="2.5" style="stroke:#181818;stroke-width:0.5;" width="491.8828" x="22.06" y="332.9769"/><ellipse cx="245.1508" cy="348.9769" fill="#ADD1B2" rx="11" ry="11" style="stroke:#181818;stroke-width:1;"/><path d="M248.1196,354.6175 Q247.5414,354.9144 246.9008,355.055 Q246.2602,355.2113 245.5571,355.2113 Q243.0571,355.2113 241.7289,353.5706 Q240.4164,351.9144 240.4164,348.7894 Q240.4164,345.6644 241.7289,344.0081 Q243.0571,342.3519 245.5571,342.3519 Q246.2602,342.3519 246.9008,342.5081 Q247.5571,342.6644 248.1196,342.9613 L248.1196,345.68 Q247.4946,345.1019 246.9008,344.8363 Q246.3071,344.555 245.6821,344.555 Q244.3383,344.555 243.6508,345.6331 Q242.9633,346.6956 242.9633,348.7894 Q242.9633,350.8831 243.6508,351.9613 Q244.3383,353.0238 245.6821,353.0238 Q246.3071,353.0238 246.9008,352.7581 Q247.4946,352.4769 248.1196,351.8988 L248.1196,354.6175 Z " fill="#000000"/><text fill="#000000" font-family="sans-serif" font-size="14" lengthAdjust="spacing" textLength="37.2012" x="265.6508" y="353.8236">Level</text><line style="stroke:#181818;stroke-width:0.5;" x1="23.06" x2="512.9428" y1="364.9769" y2="364.9769"/><g data-visibility-modifier="PRIVATE_FIELD"><rect fill="none" height="6" style="stroke:#C82930;stroke-width:1;" width="6" x="30.06" y="375.6253"/></g><text fill="#000000" font-family="sans-serif" font-size="14" lengthAdjust="spacing" textLength="58.6592" x="42.06" y="381.972">id_ : id_t</text><g data-visibility-modifier="PRIVATE_FIELD"><rect fill="none" height="6" style="stroke:#C82930;stroke-width:1;" width="6" x="30.06" y="391.9222"/></g><text fill="#000000" font-family="sans-serif" font-size="14" lengthAdjust="spacing" textLength="100.5088" x="42.06" y="398.2689">name_ : string</text><g data-visibility-modifier="PRIVATE_FIELD"><rect fill="none" height="6" style="stroke:#C82930;stroke-width:1;" width="6" x="30.06" y="408.2191"/></g><text fill="#000000" font-family="sans-serif" font-size="14" lengthAdjust="spacing" textLength="151.5322" x="42.06" y="414.5657">field_ : Matrix&lt;Cell*&gt;</text><g data-visibility-modifier="PRIVATE_FIELD"><rect fill="none" height="6" style="stroke:#C82930;stroke-width:1;" width="6" x="30.06" y="424.5159"/></g><text fill="#000000" font-family="sans-serif" font-size="14" lengthAdjust="spacing" textLength="209.3711" x="42.06" y="430.8626">entities_ : map&lt;id_t, Entity*&gt;</text><line style="stroke:#181818;stroke-width:0.5;" x1="23.06" x2="512.9428" y1="438.1644" y2="438.1644"/><g data-visibility-modifier="PUBLIC_METHOD"><ellipse cx="33.06" cy="451.8128" fill="#84BE84" rx="3" ry="3" style="stroke:#038048;stroke-width:1;"/></g><text fill="#000000" font-family="sans-serif" font-size="14" lengthAdjust="spacing" textLength="238.7314" x="42.06" y="455.1595">get_field() : const Matrix&lt;Cell*&gt;&amp;</text><g data-visibility-modifier="PUBLIC_METHOD"><ellipse cx="33.06" cy="468.1097" fill="#84BE84" rx="3" ry="3" style="stroke:#038048;stroke-width:1;"/></g><text fill="#000000" font-family="sans-serif" font-size="14" lengthAdjust="spacing" textLength="296.5703" x="42.06" y="471.4564">get_entities() : const map&lt;id_t, Entity*&gt;&amp;</text><g data-visibility-modifier="PUBLIC_METHOD"><ellipse cx="33.06" cy="484.4066" fill="#84BE84" rx="3" ry="3" style="stroke:#038048;stroke-width:1;"/></g><text fill="#000000" font-family="sans-serif" font-size="14" lengthAdjust="spacing" textLength="198.1602" x="42.06" y="487.7532">get_cell(pos : Position) : Cell</text><g data-visibility-modifier="PUBLIC_METHOD"><ellipse cx="33.06" cy="500.7034" fill="#84BE84" rx="3" ry="3" style="stroke:#038048;stroke-width:1;"/></g><text fill="#000000" font-family="sans-serif" font-size="14" lengthAdjust="spacing" textLength="236.5576" x="42.06" y="504.0501">set_cell(pos : Position, cell : Cell*)</text><g data-visibility-modifier="PUBLIC_METHOD"><ellipse cx="33.06" cy="517.0003" fill="#84BE84" rx="3" ry="3" style="stroke:#038048;stroke-width:1;"/></g><text fill="#000000" font-family="sans-serif" font-size="14" lengthAdjust="spacing" textLength="276.0215" x="42.06" y="520.347">spawn_entity(e : Entity*, pos : Position)</text><g data-visibility-modifier="PUBLIC_METHOD"><ellipse cx="33.06" cy="533.2972" fill="#84BE84" rx="3" ry="3" style="stroke:#038048;stroke-width:1;"/></g><text fill="#000000" font-family="sans-serif" font-size="14" lengthAdjust="spacing" textLength="182.1367" x="42.06" y="536.6439">remove_entity(e : Entity*)</text><g data-visibility-modifier="PUBLIC_METHOD"><ellipse cx="33.06" cy="549.5941" fill="#84BE84" rx="3" ry="3" style="stroke:#038048;stroke-width:1;"/></g><text fill="#000000" font-family="sans-serif" font-size="14" lengthAdjust="spacing" textLength="465.8828" x="42.06" y="552.9407">get_entities_radius(pos : Position, r : int) : const vector&lt;Entity*&gt;&amp;</text></g><!--class Matrix--><g class="entity" data-qualified-name="Level.Matrix" data-source-line="15" id="ent0006"><rect fill="#F1F1F1" height="162.0781" rx="2.5" ry="2.5" style="stroke:#181818;stroke-width:0.5;" width="263.7197" x="136.14" y="620.2369"/><ellipse cx="241.7108" cy="636.2369" fill="#ADD1B2" rx="11" ry="11" style="stroke:#181818;stroke-width:1;"/><path d="M244.6796,641.8775 Q244.1014,642.1744 243.4608,642.315 Q242.8202,642.4712 242.1171,642.4712 Q239.6171,642.4712 238.2889,640.8306 Q236.9764,639.1744 236.9764,636.0494 Q236.9764,632.9244 238.2889,631.2681 Q239.6171,629.6119 242.1171,629.6119 Q242.8202,629.6119 243.4608,629.7681 Q244.1171,629.9244 244.6796,630.2212 L244.6796,632.94 Q244.0546,632.3619 243.4608,632.0962 Q242.8671,631.815 242.2421,631.815 Q240.8983,631.815 240.2108,632.8931 Q239.5233,633.9556 239.5233,636.0494 Q239.5233,638.1431 240.2108,639.2212 Q240.8983,640.2837 242.2421,640.2837 Q242.8671,640.2837 243.4608,640.0181 Q244.0546,639.7369 244.6796,639.1587 L244.6796,641.8775 Z " fill="#000000"/><text fill="#000000" font-family="sans-serif" font-size="14" lengthAdjust="spacing" textLength="44.0781" x="262.2108" y="641.0836">Matrix</text><line style="stroke:#181818;stroke-width:0.5;" x1="137.14" x2="398.8597" y1="652.2369" y2="652.2369"/><g data-visibility-modifier="PRIVATE_FIELD"><rect fill="none" height="6" style="stroke:#C82930;stroke-width:1;" width="6" x="144.14" y="662.8853"/></g><text fill="#000000" font-family="sans-serif" font-size="14" lengthAdjust="spacing" textLength="140.8066" x="156.14" y="669.232">data : arr&lt;arr&lt;T&gt;&gt;</text><g data-visibility-modifier="PRIVATE_FIELD"><rect fill="none" height="6" style="stroke:#C82930;stroke-width:1;" width="6" x="144.14" y="679.1822"/></g><text fill="#000000" font-family="sans-serif" font-size="14" lengthAdjust="spacing" textLength="86.3174" x="156.14" y="685.5289">rows : size_t</text><g data-visibility-modifier="PRIVATE_FIELD"><rect fill="none" height="6" style="stroke:#C82930;stroke-width:1;" width="6" x="144.14" y="695.4791"/></g><text fill="#000000" font-family="sans-serif" font-size="14" lengthAdjust="spacing" textLength="80.6982" x="156.14" y="701.8257">cols : size_t</text><line style="stroke:#181818;stroke-width:0.5;" x1="137.14" x2="398.8597" y1="709.1275" y2="709.1275"/><g data-visibility-modifier="PUBLIC_METHOD"><ellipse cx="147.14" cy="722.7759" fill="#84BE84" rx="3" ry="3" style="stroke:#038048;stroke-width:1;"/></g><text fill="#000000" font-family="sans-serif" font-size="14" lengthAdjust="spacing" textLength="237.7197" x="156.14" y="726.1226">operator[](row : size_t) : arr&lt;T&gt;&amp;</text><g data-visibility-modifier="PUBLIC_METHOD"><ellipse cx="147.14" cy="739.0728" fill="#84BE84" rx="3" ry="3" style="stroke:#038048;stroke-width:1;"/></g><text fill="#000000" font-family="sans-serif" font-size="14" lengthAdjust="spacing" textLength="127.2305" x="156.14" y="742.4195">get_rows() : size_t</text><g data-visibility-modifier="PUBLIC_METHOD"><ellipse cx="147.14" cy="755.3697" fill="#84BE84" rx="3" ry="3" style="stroke:#038048;stroke-width:1;"/></g><text fill="#000000" font-family="sans-serif" font-size="14" lengthAdjust="spacing" textLength="121.6113" x="156.14" y="758.7164">get_cols() : size_t</text><g data-visibility-modifier="PUBLIC_METHOD"><ellipse cx="147.14" cy="771.6666" fill="#84BE84" rx="3" ry="3" style="stroke:#038048;stroke-width:1;"/></g><text fill="#000000" font-family="sans-serif" font-size="14" lengthAdjust="spacing" textLength="228.3545" x="156.14" y="775.0132">resize(rows : size_t, cols : size_t)</text></g><!--class Cell--><g class="entity" data-qualified-name="Level.Cell" data-source-line="41" id="ent0008"><rect fill="#F1F1F1" height="194.6719" rx="2.5" ry="2.5" style="stroke:#181818;stroke-width:0.5;" width="275.0264" x="322.49" y="78.2969"/><ellipse cx="442.6692" cy="94.2969" fill="#ADD1B2" rx="11" ry="11" style="stroke:#181818;stroke-width:1;"/><path d="M445.6379,99.9375 Q445.0598,100.2344 444.4192,100.375 Q443.7786,100.5313 443.0754,100.5313 Q440.5754,100.5313 439.2473,98.8906 Q437.9348,97.2344 437.9348,94.1094 Q437.9348,90.9844 439.2473,89.3281 Q440.5754,87.6719 443.0754,87.6719 Q443.7786,87.6719 444.4192,87.8281 Q445.0754,87.9844 445.6379,88.2813 L445.6379,91 Q445.0129,90.4219 444.4192,90.1563 Q443.8254,89.875 443.2004,89.875 Q441.8567,89.875 441.1692,90.9531 Q440.4817,92.0156 440.4817,94.1094 Q440.4817,96.2031 441.1692,97.2813 Q441.8567,98.3438 443.2004,98.3438 Q443.8254,98.3438 444.4192,98.0781 Q445.0129,97.7969 445.6379,97.2188 L445.6379,99.9375 Z " fill="#000000"/><text fill="#000000" font-family="sans-serif" font-size="14" lengthAdjust="spacing" textLength="26.168" x="463.1692" y="99.1436">Cell</text><line style="stroke:#181818;stroke-width:0.5;" x1="323.49" x2="596.5164" y1="110.2969" y2="110.2969"/><g data-visibility-modifier="PRIVATE_FIELD"><rect fill="none" height="6" style="stroke:#C82930;stroke-width:1;" width="6" x="330.49" y="120.9453"/></g><text fill="#000000" font-family="sans-serif" font-size="14" lengthAdjust="spacing" textLength="112.3965" x="342.49" y="127.292">type_ : CellType</text><g data-visibility-modifier="PRIVATE_FIELD"><rect fill="none" height="6" style="stroke:#C82930;stroke-width:1;" width="6" x="330.49" y="137.2422"/></g><text fill="#000000" font-family="sans-serif" font-size="14" lengthAdjust="spacing" textLength="177.1943" x="342.49" y="143.5889">items_ : vector&lt;Item*&gt;&amp;</text><line style="stroke:#181818;stroke-width:0.5;" x1="323.49" x2="596.5164" y1="150.8906" y2="150.8906"/><g data-visibility-modifier="PUBLIC_METHOD"><ellipse cx="333.49" cy="164.5391" fill="#84BE84" rx="3" ry="3" style="stroke:#038048;stroke-width:1;"/></g><text fill="#000000" font-family="sans-serif" font-size="14" lengthAdjust="spacing" textLength="134.627" x="342.49" y="167.8857">is_walkable() : bool</text><g data-visibility-modifier="PUBLIC_METHOD"><ellipse cx="333.49" cy="180.8359" fill="#84BE84" rx="3" ry="3" style="stroke:#038048;stroke-width:1;"/></g><text fill="#000000" font-family="sans-serif" font-size="14" lengthAdjust="spacing" textLength="100.4404" x="342.49" y="184.1826">is_wall() : bool</text><g data-visibility-modifier="PUBLIC_METHOD"><ellipse cx="333.49" cy="197.1328" fill="#84BE84" rx="3" ry="3" style="stroke:#038048;stroke-width:1;"/></g><text fill="#000000" font-family="sans-serif" font-size="14" lengthAdjust="spacing" textLength="146.3096" x="342.49" y="200.4795">get_type() : CellType</text><g data-visibility-modifier="PUBLIC_METHOD"><ellipse cx="333.49" cy="213.4297" fill="#84BE84" rx="3" ry="3" style="stroke:#038048;stroke-width:1;"/></g><text fill="#000000" font-family="sans-serif" font-size="14" lengthAdjust="spacing" textLength="220.2129" x="342.49" y="216.7764">set_type(new_typev : CellType)</text><g data-visibility-modifier="PUBLIC_METHOD"><ellipse cx="333.49" cy="229.7266" fill="#84BE84" rx="3" ry="3" style="stroke:#038048;stroke-width:1;"/></g><text fill="#000000" font-family="sans-serif" font-size="14" lengthAdjust="spacing" textLength="249.0264" x="342.49" y="233.0732">get_items(): const vector&lt;Item*&gt;&amp;</text><g data-visibility-modifier="PUBLIC_METHOD"><ellipse cx="333.49" cy="246.0234" fill="#84BE84" rx="3" ry="3" style="stroke:#038048;stroke-width:1;"/></g><text fill="#000000" font-family="sans-serif" font-size="14" lengthAdjust="spacing" textLength="195.959" x="342.49" y="249.3701">add_item(new_item : Item*)</text><g data-visibility-modifier="PUBLIC_METHOD"><ellipse cx="333.49" cy="262.3203" fill="#84BE84" rx="3" ry="3" style="stroke:#038048;stroke-width:1;"/></g><text fill="#000000" font-family="sans-serif" font-size="14" lengthAdjust="spacing" textLength="212.4951" x="342.49" y="265.667">pop_item(item : Item*) : Item*</text></g><!--class CellType--><g class="entity" data-qualified-name="Level.CellType" data-source-line="53" id="ent0009"><rect fill="#F1F1F1" height="145.7813" rx="2.5" ry="2.5" style="stroke:#181818;stroke-width:0.5;" width="118.6543" x="632.67" y="102.7469"/><ellipse cx="659.4372" cy="118.7469" fill="#EB937F" rx="11" ry="11" style="stroke:#181818;stroke-width:1;"/><path d="M663.5466,124.7469 L655.8279,124.7469 L655.8279,112.3562 L663.5466,112.3562 L663.5466,114.5125 L658.281,114.5125 L658.281,117.1844 L663.0466,117.1844 L663.0466,119.3406 L658.281,119.3406 L658.281,122.5906 L663.5466,122.5906 L663.5466,124.7469 Z " fill="#000000"/><text fill="#000000" font-family="sans-serif" font-size="14" lengthAdjust="spacing" textLength="60.5049" x="676.0522" y="123.5936">CellType</text><line style="stroke:#181818;stroke-width:0.5;" x1="633.67" x2="750.3243" y1="134.7469" y2="134.7469"/><text fill="#000000" font-family="sans-serif" font-size="14" lengthAdjust="spacing" textLength="47.6191" x="638.67" y="151.742">FLOOR</text><text fill="#000000" font-family="sans-serif" font-size="14" lengthAdjust="spacing" textLength="88.3271" x="638.67" y="168.0389">OPEN_DOOR</text><text fill="#000000" font-family="sans-serif" font-size="14" lengthAdjust="spacing" textLength="106.6543" x="638.67" y="184.3357">CLOSED_DOOR</text><text fill="#000000" font-family="sans-serif" font-size="14" lengthAdjust="spacing" textLength="39.0195" x="638.67" y="200.6326">WALL</text><text fill="#000000" font-family="sans-serif" font-size="14" lengthAdjust="spacing" textLength="45.999" x="638.67" y="216.9295">GLASS</text><text fill="#000000" font-family="sans-serif" font-size="14" lengthAdjust="spacing" textLength="46.4297" x="638.67" y="233.2264">STASH</text><line style="stroke:#181818;stroke-width:0.5;" x1="633.67" x2="750.3243" y1="240.5281" y2="240.5281"/></g><!--reverse link Missions to Level--><g class="link" data-entity-1="ent0003" data-entity-2="ent0004" data-link-type="composition" data-source-line="14" id="lnk5"><path codeLine="14" d="M155,252.5369 C155,280.1769 155,301.2469 155,332.7169" fill="none" id="Missions-backto-Level" style="stroke:#181818;stroke-width:1;"/><polygon fill="#181818" points="155,240.5369,151,246.5369,155,252.5369,159,246.5369,155,240.5369" style="stroke:#181818;stroke-width:1;"/></g><!--reverse link Level to Matrix--><g class="link" data-entity-1="ent0004" data-entity-2="ent0006" data-link-type="composition" data-source-line="15" id="lnk7"><path codeLine="15" d="M268,572.5369 C268,592.5369 268,600.9769 268,619.8669" fill="none" id="Level-backto-Matrix" style="stroke:#181818;stroke-width:1;"/><polygon fill="#181818" points="268,560.5369,264,566.5369,268,572.5369,272,566.5369,268,560.5369" style="stroke:#181818;stroke-width:1;"/></g><?plantuml-src RLFRYjim47ttLuXzAFPkyWCb1C9ksYvuwn0RIbcAqThJL4IMZAGaJSl-UwMHxFZIXpYZcQEZEMSaVMIYfOes96K2pBK58fNv9QF8CCE1PDcExBUxB7ykilttA6ffTQG787Sfd87VaRyH8HMdMfCNfZMJGcEAa6KJrYNvICvG6QbMkET-xUlLIIaGfkHdxY1C6Cm_7C2KVSrjY1DRzbizGiyG-FKa3lmc9VTGMjSJY2TARFazif--w_lbqjTi4lynyqADOh-ZcqXSTn9hQgYbf4gjtAzO1sbANhJDQ_O7IXFKIZv9FSWM5BMslFw8xOQ-c0J6OltXPeXZH1-61EYKvPqL5BXLF6fZGKOjz0PuNLvnaCLg74ZTzIve0owZhNPnyBcV33Z2l2EhH-3zPErSc660aszekt9C2x9rsMl0OE_8WSrNTW9cJ3KGt_4De7FQ0Rwo174hdTYTr7Qh56wdunrSe3d8McIJ0ObNn65RUX6-XMiCjXWEN9392PtrZJp3V_39N4-fQCrEUjQ5kjrahpOydw7KmUnSjztet0CkWuB2nc6W1fhXEtoswzunfiiBvKVwnY4UFnvVuPEiK-2EYPFfEUWhbWHSC3WF80C3i9yucSWRTUKUheCXbGii4m82JIjRNn_Lkg0p2CIfwHi87drAisoFKRRRVYsVkjLZckNRfzlwsoPDCVYSRl8SexpOv5-G-_qV?></g></svg>