<svg xmlns="http://www.w3.org/2000/svg" xmlns:xlink="http://www.w3.org/1999/xlink" contentStyleType="text/css" data-diagram-type="CLASS" height="189px" preserveAspectRatio="none" style="width:529px;height:189px;background:#FFFFFF;" version="1.1" viewBox="0 0 529 189" width="529px" zoomAndPan="magnify"><?plantuml 1.2026.3beta6?><defs/><g><g class="title" data-source-line="1"><text fill="#000000" font-family="sans-serif" font-size="14" font-weight="700" lengthAdjust="spacing" textLength="228.2178" x="146.8911" y="22.9951">OOP CONTROLLER AND VIEW</text></g><!--cluster Controller--><g class="cluster" data-qualified-name="Controller" data-source-line="3" id="ent0002"><path d="M8.5,43.2969 L88.5713,43.2969 A3.75,3.75 0 0 1 91.0713,45.7969 L98.0713,65.5938 L229.5,65.5938 A2.5,2.5 0 0 1 232,68.0938 L232,172.3869 A2.5,2.5 0 0 1 229.5,174.8869 L8.5,174.8869 A2.5,2.5 0 0 1 6,172.3869 L6,45.7969 A2.5,2.5 0 0 1 8.5,43.2969" fill="none" style="stroke:#000000;stroke-width:1.5;"/><line style="stroke:#000000;stroke-width:1.5;" x1="6" x2="98.0713" y1="65.5938" y2="65.5938"/><text fill="#000000" font-family="sans-serif" font-size="14" font-weight="700" lengthAdjust="spacing" textLength="79.0713" x="10" y="58.292">Controller</text></g><!--cluster View--><g class="cluster" data-qualified-name="View" data-source-line="10" id="ent0004"><path d="M258.5,43.2969 L297.5625,43.2969 A3.75,3.75 0 0 1 300.0625,45.7969 L307.0625,65.5938 L511.5,65.5938 A2.5,2.5 0 0 1 514,68.0938 L514,172.3869 A2.5,2.5 0 0 1 511.5,174.8869 L258.5,174.8869 A2.5,2.5 0 0 1 256,172.3869 L256,45.7969 A2.5,2.5 0 0 1 258.5,43.2969" fill="none" style="stroke:#000000;stroke-width:1.5;"/><line style="stroke:#000000;stroke-width:1.5;" x1="256" x2="307.0625" y1="65.5938" y2="65.5938"/><text fill="#000000" font-family="sans-serif" font-size="14" font-weight="700" lengthAdjust="spacing" textLength="38.0625" x="260" y="58.292">View</text></g><!--class IController--><g class="entity" data-qualified-name="Controller.IController" data-source-line="4" id="ent0003"><rect fill="#F1F1F1" height="80.5938" rx="2.5" ry="2.5" style="stroke:#181818;stroke-width:0.5;" width="194.0752" x="21.96" y="78.2969"/><ellipse cx="78.0967" cy="94.2969" fill="#B4A7E5" rx="11" ry="11" style="stroke:#181818;stroke-width:1;"/><path d="M74.0186,90.0625 L74.0186,87.9063 L81.4092,87.9063 L81.4092,90.0625 L78.9405,90.0625 L78.9405,98.1406 L81.4092,98.1406 L81.4092,100.2969 L74.0186,100.2969 L74.0186,98.1406 L76.4873,98.1406 L76.4873,90.0625 L74.0186,90.0625 Z " fill="#000000"/><text fill="#000000" font-family="sans-serif" font-size="14" font-style="italic" lengthAdjust="spacing" textLength="73.3018" x="98.5967" y="99.1436">IController</text><line style="stroke:#181818;stroke-width:0.5;" x1="22.96" x2="215.0352" y1="110.2969" y2="110.2969"/><line style="stroke:#181818;stroke-width:0.5;" x1="22.96" x2="215.0352" y1="118.2969" y2="118.2969"/><g data-visibility-modifier="PUBLIC_METHOD"><ellipse cx="32.96" cy="131.9453" fill="#84BE84" rx="3" ry="3" style="stroke:#038048;stroke-width:1;"/></g><text fill="#000000" font-family="sans-serif" font-size="14" lengthAdjust="spacing" textLength="115.6504" x="41.96" y="135.292">handle_key(key)</text><g data-visibility-modifier="PUBLIC_METHOD"><ellipse cx="32.96" cy="148.2422" fill="#84BE84" rx="3" ry="3" style="stroke:#038048;stroke-width:1;"/></g><text fill="#000000" font-family="sans-serif" font-size="14" lengthAdjust="spacing" textLength="168.0752" x="41.96" y="151.5889">handle_mouse(position)</text></g><!--class IView--><g class="entity" data-qualified-name="View.IView" data-source-line="11" id="ent0005"><rect fill="#F1F1F1" height="80.5938" rx="2.5" ry="2.5" style="stroke:#181818;stroke-width:0.5;" width="226.6484" x="271.68" y="78.2969"/><ellipse cx="361.9246" cy="94.2969" fill="#B4A7E5" rx="11" ry="11" style="stroke:#181818;stroke-width:1;"/><path d="M357.8465,90.0625 L357.8465,87.9063 L365.2371,87.9063 L365.2371,90.0625 L362.7684,90.0625 L362.7684,98.1406 L365.2371,98.1406 L365.2371,100.2969 L357.8465,100.2969 L357.8465,98.1406 L360.3153,98.1406 L360.3153,90.0625 L357.8465,90.0625 Z " fill="#000000"/><text fill="#000000" font-family="sans-serif" font-size="14" font-style="italic" lengthAdjust="spacing" textLength="37.6592" x="382.4246" y="99.1436">IView</text><line style="stroke:#181818;stroke-width:0.5;" x1="272.68" x2="497.3284" y1="110.2969" y2="110.2969"/><line style="stroke:#181818;stroke-width:0.5;" x1="272.68" x2="497.3284" y1="118.2969" y2="118.2969"/><g data-visibility-modifier="PUBLIC_METHOD"><ellipse cx="282.68" cy="131.9453" fill="#84BE84" rx="3" ry="3" style="stroke:#038048;stroke-width:1;"/></g><text fill="#000000" font-family="sans-serif" font-size="14" lengthAdjust="spacing" textLength="131.3047" x="291.68" y="135.292">render(lvl : Level*)</text><g data-visibility-modifier="PUBLIC_METHOD"><ellipse cx="282.68" cy="148.2422" fill="#84BE84" rx="3" ry="3" style="stroke:#038048;stroke-width:1;"/></g><text fill="#000000" font-family="sans-serif" font-size="14" lengthAdjust="spacing" textLength="200.6484" x="291.68" y="151.5889">show_message(msg : string)</text></g><?plantuml-src POt12e9054NtynKFLrFzGRim5u8u8M5B6VIbWyyPcPcK2Fyz3QEYnTtS0-TuvGb1Y1E48Zrd8acY30xf4V8ukZ3MoxALDK8G6ksj8K8Rm8C1AEtHNcM947_GYm3i6gahmgB5Ev-t-JaxStF8U-EKLqOlR6BJLoXNEFubblCjjwWhj9m6WZqaE21jru9hp5XqwDmiufshP-wyLRfUAqy0?></g></svg>